<?xml version="1.0" encoding="utf-8"?>
<!-- Generator: Adobe Illustrator 19.0.0, SVG Export Plug-In . SVG Version: 6.00 Build 0)  -->
<svg version="1.1" id="Layer_1" xmlns="http://www.w3.org/2000/svg" xmlns:xlink="http://www.w3.org/1999/xlink" x="0px" y="0px"
	 viewBox="0 0 960 428" style="enable-background:new 0 0 960 428;" xml:space="preserve">
<style type="text/css">
	.st0{fill:#9F6459;}
	.st1{fill:#D8DCE1;}
	.st2{fill:#FF4F19;}
	.st3{fill:#FF9600;}
	.st4{fill:#FFD200;}
	.st5{fill:#74D24F;}
	.st6{fill:#D1D4D1;}
	.st7{fill:#F0C419;}
	.st8{fill:#71C285;}
	.st9{fill:#556080;}
	.st10{fill:#9BC9FF;}
	.st11{clip-path:url(#SVGID_2_);fill:#2488FF;}
	.st12{fill:#2488FF;}
	.st13{fill:#005ECE;}
	.st14{fill:#ACABB1;}
	.st15{fill:#565659;}
	.st16{fill:#FFE98F;}
	.st17{fill:#FFDA44;}
	.st18{fill:#FF9811;}
	.st19{fill:#FFFFFF;}
	.st20{fill:#CCCCCC;}
	.st21{fill:#5C546A;}
	.st22{fill:#B9BBC1;}
	.st23{fill:#E6E6E6;}
	.st24{fill:#8B8996;}
	.st25{fill:#FF5931;}
	.st26{fill:#494259;}
	.st27{clip-path:url(#SVGID_4_);fill:#FFDA44;}
	.st28{fill:#D7EEFF;}
	.st29{fill:#F2C91D;}
	.st30{fill:#E6F3FF;}
	.st31{fill:none;stroke:#5C546A;stroke-width:5;stroke-miterlimit:10;stroke-dasharray:12.255;}
	.st32{fill:none;stroke:#5C546A;stroke-width:5;stroke-miterlimit:10;stroke-dasharray:12.2548;}
	.st33{clip-path:url(#SVGID_6_);fill:#ECF0F1;}
	.st34{clip-path:url(#SVGID_6_);fill:#556080;}
	.st35{fill:#9CDD05;}
	.st36{fill:#CCFC5C;}
	.st37{fill:#006DF0;}
	.st38{fill:#9BFBFF;}
	.st39{fill:#3E465B;}
	.st40{fill:#2BDA72;}
	.st41{fill:#DD352E;}
	.st42{fill:#ED7161;}
	.st43{fill:#EFCE4A;}
	.st44{clip-path:url(#SVGID_8_);fill:#EA6453;}
	.st45{clip-path:url(#SVGID_8_);fill:#FFFFFF;}
	.st46{clip-path:url(#SVGID_8_);fill:#EF1F4B;}
	.st47{opacity:0.45;fill:#5C546A;}
</style>
<g>
	<g>
		<path class="st0" d="M-181.9,254.2H-242c0,3.7-3,6.7-6.7,6.7s-6.7-3-6.7-6.7h-60.1c-9.2,0-16.7,7.5-16.7,16.7V438
			c0,9.2,7.5,16.7,16.7,16.7h133.7c9.2,0,16.7-7.5,16.7-16.7V270.9C-165.1,261.7-172.6,254.2-181.9,254.2L-181.9,254.2z
			 M-181.9,434.6c0,1.8-1.5,3.3-3.3,3.3h-127c-1.8,0-3.3-1.5-3.3-3.3V274.2c0-1.8,1.5-3.3,3.3-3.3h127c1.8,0,3.3,1.5,3.3,3.3V434.6z
			 M-181.9,434.6"/>
	</g>
	<path class="st1" d="M-292.1,394.5c-0.8,0-1.6-0.3-2.2-0.8c-1.4-1.2-1.5-3.3-0.3-4.7l26.7-30.1c1-1.1,2.5-1.4,3.9-0.8l33.6,15.3
		l22.1-53.6c0.7-1.7,2.7-2.5,4.4-1.8c1.7,0.7,2.5,2.7,1.8,4.4l-23.4,56.8c-0.3,0.8-1,1.5-1.9,1.8c-0.8,0.3-1.8,0.3-2.6-0.1
		l-34.5-15.7l-25.1,28.2C-290.3,394.1-291.2,394.5-292.1,394.5L-292.1,394.5z M-292.1,394.5"/>
	<path class="st2" d="M-282.1,391.2c0,5.5-4.5,10-10,10c-5.5,0-10-4.5-10-10c0-5.5,4.5-10,10-10
		C-286.6,381.2-282.1,385.6-282.1,391.2L-282.1,391.2z M-282.1,391.2"/>
	<path class="st3" d="M-255.4,361.1c0,5.5-4.5,10-10,10s-10-4.5-10-10c0-5.5,4.5-10,10-10S-255.4,355.6-255.4,361.1L-255.4,361.1z
		 M-255.4,361.1"/>
	<path class="st4" d="M-218.6,377.8c0,5.5-4.5,10-10,10c-5.5,0-10-4.5-10-10c0-5.5,4.5-10,10-10
		C-223.1,367.8-218.6,372.3-218.6,377.8L-218.6,377.8z M-218.6,377.8"/>
	<path class="st5" d="M-195.2,321c0,5.5-4.5,10-10,10c-5.5,0-10-4.5-10-10c0-5.5,4.5-10,10-10C-199.7,311-195.2,315.5-195.2,321
		L-195.2,321z M-195.2,321"/>
</g>
<g>
	<path class="st6" d="M-364,564.8h-21c-1.4,0-2.6-1.2-2.6-2.6c0-1.5,1.2-2.6,2.6-2.6h21c1.4,0,2.6,1.2,2.6,2.6
		C-361.4,563.6-362.6,564.8-364,564.8L-364,564.8z M-364,564.8"/>
	<path class="st6" d="M-398.1,564.8c-0.7,0-1.4-0.3-1.9-0.8c-0.5-0.5-0.8-1.2-0.8-1.9c0-0.7,0.3-1.4,0.8-1.9c1-1,2.7-1,3.7,0
		c0.5,0.5,0.8,1.2,0.8,1.9c0,0.7-0.3,1.4-0.8,1.9C-396.8,564.5-397.4,564.8-398.1,564.8L-398.1,564.8z M-398.1,564.8"/>
	<path class="st6" d="M-390.3,551.7h-7.9c-1.4,0-2.6-1.2-2.6-2.6c0-1.5,1.2-2.6,2.6-2.6h7.9c1.4,0,2.6,1.2,2.6,2.6
		C-387.6,550.5-388.8,551.7-390.3,551.7L-390.3,551.7z M-390.3,551.7"/>
	<path class="st6" d="M-364,551.7h-5.3c-1.4,0-2.6-1.2-2.6-2.6c0-1.5,1.2-2.6,2.6-2.6h5.3c1.4,0,2.6,1.2,2.6,2.6
		C-361.4,550.5-362.6,551.7-364,551.7L-364,551.7z M-364,551.7"/>
	<path class="st6" d="M-379.8,551.7c-0.7,0-1.4-0.3-1.9-0.8c-0.5-0.5-0.8-1.2-0.8-1.9c0-0.7,0.3-1.4,0.8-1.9c1-1,2.7-1,3.7,0
		c0.5,0.5,0.8,1.2,0.8,1.9c0,0.7-0.3,1.4-0.8,1.9C-378.4,551.4-379.1,551.7-379.8,551.7L-379.8,551.7z M-379.8,551.7"/>
	<rect x="-395.5" y="646" class="st7" width="21" height="39.3"/>
	<rect x="-366.7" y="646" class="st7" width="21" height="39.3"/>
	<rect x="-337.8" y="646" class="st7" width="21" height="39.3"/>
	<rect x="-309" y="646" class="st7" width="21" height="39.3"/>
	<rect x="-280.2" y="646" class="st7" width="21" height="39.3"/>
	<rect x="-395.5" y="632.9" class="st8" width="21" height="13.1"/>
	<rect x="-366.7" y="606.7" class="st8" width="21" height="39.3"/>
	<rect x="-337.8" y="591" class="st8" width="21" height="55.1"/>
	<rect x="-309" y="619.8" class="st8" width="21" height="26.2"/>
	<rect x="-280.2" y="564.8" class="st8" width="21" height="81.3"/>
	<path class="st9" d="M-251.3,535.9h-152.1c-1.4,0-2.6-1.2-2.6-2.6c0-1.4,1.2-2.6,2.6-2.6h152.1c1.4,0,2.6,1.2,2.6,2.6
		C-248.7,534.8-249.9,535.9-251.3,535.9L-251.3,535.9z M-251.3,535.9"/>
	<path class="st9" d="M-251.3,688h-152.1c-1.4,0-2.6-1.2-2.6-2.6c0-1.4,1.2-2.6,2.6-2.6h152.1c1.4,0,2.6,1.2,2.6,2.6
		C-248.7,686.8-249.9,688-251.3,688L-251.3,688z M-251.3,688"/>
</g>
<g>
	<g>
		<path class="st10" d="M164.1,296.4L147,313.2c3.8,1.8,6.8,4.8,8.6,8.5l17.1-16.9C169,303.1,165.9,300.1,164.1,296.4L164.1,296.4z
			 M164.1,296.4"/>
		<path class="st10" d="M203.9,303.1l-6.9-6.7c-1.8,3.7-4.9,6.7-8.6,8.5l6.9,6.7C197.1,307.9,200.1,304.9,203.9,303.1L203.9,303.1z
			 M203.9,303.1"/>
		<path class="st10" d="M236.8,286.3l-17.1,16.9c3.8,1.8,6.8,4.8,8.6,8.5l17.1-16.9C241.6,293,238.6,290,236.8,286.3L236.8,286.3z
			 M236.8,286.3"/>
		<g>
			<defs>
				<rect id="SVGID_1_" x="120.9" y="260.6" width="150.5" height="87.2"/>
			</defs>
			<clipPath id="SVGID_2_">
				<use xlink:href="#SVGID_1_"  style="overflow:visible;"/>
			</clipPath>
			<path class="st11" d="M120.9,329.5c0,9.9,8.2,18,18.3,18v-36C129.1,311.5,120.9,319.6,120.9,329.5L120.9,329.5z M120.9,329.5"/>
			<path class="st11" d="M235,278.5c0,2.8,0.6,5.4,1.8,7.7c1.8,3.7,4.8,6.7,8.6,8.5c2.4,1.1,5.1,1.8,7.9,1.8v-36
				C243.2,260.6,235,268.6,235,278.5L235,278.5z M235,278.5"/>
		</g>
		<path class="st12" d="M162.3,288.6c0,2.8,0.6,5.4,1.8,7.7c1.8,3.7,4.8,6.7,8.6,8.5c2.4,1.1,5.1,1.8,7.9,1.8v-36
			C170.5,270.7,162.3,278.7,162.3,288.6L162.3,288.6z M162.3,288.6"/>
		<path class="st12" d="M203.9,303.1c-3.8,1.8-6.8,4.8-8.6,8.5c-1.1,2.3-1.8,5-1.8,7.7c0,9.9,8.2,18,18.3,18v-36
			C209,301.4,206.3,302,203.9,303.1L203.9,303.1z M203.9,303.1"/>
		<g>
			<path class="st13" d="M147,313.2c-2.4-1.1-5.1-1.8-7.9-1.8v36c10.1,0,18.3-8.1,18.3-18c0-2.8-0.6-5.4-1.8-7.7
				C153.8,318,150.7,315,147,313.2L147,313.2z M147,313.2"/>
			<path class="st13" d="M253.2,260.6v36c10.1,0,18.3-8.1,18.3-18C271.5,268.6,263.3,260.6,253.2,260.6L253.2,260.6z M253.2,260.6"
				/>
		</g>
		<path class="st13" d="M197.1,296.4c1.1-2.3,1.8-5,1.8-7.7c0-9.9-8.2-18-18.3-18v36c2.8,0,5.5-0.6,7.9-1.8
			C192.2,303.1,195.3,300.1,197.1,296.4L197.1,296.4z M197.1,296.4"/>
		<path class="st13" d="M219.6,303.1c-2.4-1.1-5.1-1.8-7.9-1.8v36c10.1,0,18.3-8.1,18.3-18c0-2.8-0.6-5.4-1.8-7.7
			C226.4,307.9,223.4,304.9,219.6,303.1L219.6,303.1z M219.6,303.1"/>
	</g>
	<g>
		<path class="st14" d="M776.8,359c0,6.2,5.1,11.3,11.3,11.3c6.2,0,11.3-5.1,11.3-11.3v-0.6h-22.6V359z M776.8,359"/>
		<path class="st15" d="M788.1,351.3h-11.3v7.1h22.6v-7.1H788.1z M788.1,351.3"/>
		<path class="st16" d="M784.5,328.2c-5.5-1.6-9.5-6.6-9.5-12.6h7.1c0,3.3,2.7,5.9,5.9,5.9v-41.6c-17.2,0-31.1,13.9-31.1,31.1
			c0,11.5,6.3,21.6,15.6,26.9l4.2,13.4h7.7V328.2z M784.5,328.2"/>
		<path class="st17" d="M788.1,279.9v41.6c3.3,0,5.9-2.7,5.9-5.9h7.1c0,6-4,11-9.5,12.6v23.1h7.7l4.2-13.4
			c9.3-5.4,15.6-15.4,15.6-26.9C819.1,293.8,805.2,279.9,788.1,279.9L788.1,279.9z M788.1,279.9"/>
		<path class="st18" d="M782.1,315.6H775c0,6,4,11,9.5,12.6v23.1h7.1v-23.1c5.5-1.6,9.5-6.6,9.5-12.6H794c0,3.3-2.7,5.9-5.9,5.9
			S782.1,318.9,782.1,315.6L782.1,315.6z M782.1,315.6"/>
	</g>
	<g>
		<g>
			<g>
				<rect x="366.2" y="173" class="st19" width="255.1" height="157"/>
				<rect x="366.2" y="173" class="st20" width="255.1" height="39.2"/>
				<path class="st21" d="M618.4,153.4H369.2c-12.5,0-22.6,10.1-22.6,22.5v178.6c0,2.7,2.2,4.9,4.9,4.9h284.6c2.7,0,4.9-2.2,4.9-4.9
					V175.9C641,163.5,630.8,153.4,618.4,153.4L618.4,153.4z M366.2,325.1V177.9c0-2.7,2.2-4.9,4.9-4.9h245.3c2.7,0,4.9,2.2,4.9,4.9
					v147.2c0,2.7-2.2,4.9-4.9,4.9H371.1C368.4,330,366.2,327.8,366.2,325.1L366.2,325.1z M366.2,325.1"/>
				<path class="st22" d="M645.9,349.6H341.7c-2.7,0-4.9,2.2-4.9,4.9c0,10.8,8.8,19.6,19.6,19.6h274.7c10.8,0,19.6-8.8,19.6-19.6
					C650.8,351.8,648.6,349.6,645.9,349.6L645.9,349.6z M645.9,349.6"/>
				<path class="st19" d="M513.4,197.5"/>
				<path class="st19" d="M538,197.5"/>
				<path class="st19" d="M587,197.5"/>
				<path class="st23" d="M474.2,315.3h-83.4c-2.7,0-4.9-2.2-4.9-4.9v-78.5c0-2.7,2.2-4.9,4.9-4.9h83.4c2.7,0,4.9,2.2,4.9,4.9v78.5
					C479.1,313.1,476.9,315.3,474.2,315.3L474.2,315.3z M474.2,315.3"/>
				<path class="st23" d="M591.9,252.8h-93.2c-2.7,0-4.9-2.2-4.9-4.9c0-2.7,2.2-4.9,4.9-4.9h93.2c2.7,0,4.9,2.2,4.9,4.9
					C596.8,250.6,594.6,252.8,591.9,252.8L591.9,252.8z M591.9,252.8"/>
				<path class="st22" d="M538,276"/>
				<path class="st22" d="M538,315.3"/>
				<path class="st22" d="M596.8,276"/>
				<path class="st22" d="M596.8,295.7"/>
				<path class="st23" d="M562.5,272.4h-63.8c-2.7,0-4.9-2.2-4.9-4.9c0-2.7,2.2-4.9,4.9-4.9h63.8c2.7,0,4.9,2.2,4.9,4.9
					C567.4,270.2,565.2,272.4,562.5,272.4L562.5,272.4z M562.5,272.4"/>
				<path class="st24" d="M474.2,359.5h39.2c5.4,0,9.8-4.4,9.8-9.8h-58.9C464.4,355.1,468.8,359.5,474.2,359.5L474.2,359.5z
					 M474.2,359.5"/>
			</g>
			<path class="st25" d="M538.6,303.7h-38.1c-3.7,0-6.7-3-6.7-6.7v-6.3c0-3.7,3-6.7,6.7-6.7h38.1c3.7,0,6.7,3,6.7,6.7v6.3
				C545.3,300.7,542.3,303.7,538.6,303.7z"/>
		</g>
		<g>
			<g>
				<path class="st21" d="M325.4,374.6h65c9.5,0,17.3-7.8,17.3-17.3v-143c0-9.5-7.8-17.3-17.3-17.3h-65c-9.5,0-17.3,7.8-17.3,17.3
					v143C308.2,366.8,315.9,374.6,325.4,374.6z"/>
				<rect x="314.5" y="223.5" class="st19" width="86.8" height="124.4"/>
				<circle class="st26" cx="357.9" cy="361.1" r="7.7"/>
				<path class="st26" d="M371.4,212.5h-27c-1,0-1.8-0.8-1.8-1.8v-0.3c0-1,0.8-1.8,1.8-1.8h27c1,0,1.8,0.8,1.8,1.8v0.3
					C373.2,211.7,372.4,212.5,371.4,212.5z"/>
				<circle class="st26" cx="380" cy="210.5" r="2"/>
			</g>
			<rect x="385.2" y="226.8" class="st20" width="11.5" height="5.1"/>
			<rect x="344.5" y="228.3" class="st20" width="26.8" height="2"/>
			<path class="st25" d="M386.1,337.4h-56.3c-2.5,0-4.6-2.1-4.6-4.6v-4c0-2.5,2.1-4.6,4.6-4.6h56.3c2.5,0,4.6,2.1,4.6,4.6v4
				C390.7,335.4,388.6,337.4,386.1,337.4z"/>
			<circle class="st20" cx="357.9" cy="262.1" r="16.6"/>
			<rect x="330.4" y="288.5" class="st23" width="56.7" height="5.3"/>
			<rect x="330.4" y="298.3" class="st23" width="56.7" height="5.3"/>
			<rect x="343.1" y="306.9" class="st23" width="31.5" height="5.3"/>
		</g>
	</g>
	<g>
		<g>
			<defs>
				<rect id="SVGID_3_" x="603.4" y="178.4" width="131.4" height="134.1"/>
			</defs>
			<clipPath id="SVGID_4_">
				<use xlink:href="#SVGID_3_"  style="overflow:visible;"/>
			</clipPath>
			<path class="st27" d="M707.5,309.9H606.9c-2.3,0-4-2.2-3.4-4.4l22.8-62.6c0.4-1.5,1.8-2.6,3.4-2.6h100.6c2.3,0,3.4,2.2,3.4,4.4
				l-22.8,62.6C710.5,308.8,709.1,309.9,707.5,309.9L707.5,309.9z M707.5,309.9"/>
		</g>
		<path class="st28" d="M626.4,242.8c0.4-1.5,1.8-2.6,3.4-2.6h77v-27l-33.7-33.7h-51.7v76.9L626.4,242.8z M626.4,242.8"/>
		<path class="st29" d="M716.4,220h-9.6v20.2h13.5v-16.3C720.3,221.7,718.5,220,716.4,220L716.4,220z M716.4,220"/>
		<path class="st29" d="M621.4,204.3h-14.1c-2.2,0-3.9,1.7-3.9,3.9v96c0.2,0,0.3,0,0.5,0l17.5-47.8V204.3z M621.4,204.3"/>
		<path class="st12" d="M659.6,215.5h-22.5c-1.2,0-2.2-1-2.2-2.2c0-1.2,1-2.2,2.2-2.2h22.5c1.2,0,2.2,1,2.2,2.2
			C661.8,214.5,660.8,215.5,659.6,215.5L659.6,215.5z M659.6,215.5"/>
		<path class="st12" d="M659.6,199.8h-22.5c-1.2,0-2.2-1-2.2-2.2c0-1.2,1-2.2,2.2-2.2h22.5c1.2,0,2.2,1,2.2,2.2
			C661.8,198.8,660.8,199.8,659.6,199.8L659.6,199.8z M659.6,199.8"/>
		<path class="st12" d="M691,231.2h-53.9c-1.2,0-2.2-1-2.2-2.2c0-1.3,1-2.2,2.2-2.2H691c1.2,0,2.2,1,2.2,2.2
			C693.3,230.2,692.3,231.2,691,231.2L691,231.2z M691,231.2"/>
		<path class="st30" d="M673.1,213.3h33.7l-33.7-33.7V213.3z M673.1,213.3"/>
	</g>
	<line class="st31" x1="298.8" y1="313.2" x2="256.8" y2="313.2"/>
	<path class="st32" d="M493.8,139.3v-16.1c0-7.7-6.2-13.9-13.9-13.9H288.2"/>
	<g>
		<g>
			<g>
				<defs>
					<rect id="SVGID_5_" x="421.7" y="78.6" width="143.1" height="139.5"/>
				</defs>
				<clipPath id="SVGID_6_">
					<use xlink:href="#SVGID_5_"  style="overflow:visible;"/>
				</clipPath>
				<path class="st33" d="M466.1,178.4l-18.9,10.3c-1.1,0.6-2.1,1.4-3,2.2c11,9.3,25.2,14.9,40.7,14.9c15.4,0,29.5-5.5,40.5-14.7
					c-1-0.8-2.1-1.6-3.3-2.2l-20.2-10.1c-2.6-1.3-4.3-4-4.3-6.9v-7.9c0.6-0.6,1.2-1.5,1.9-2.5c2.8-3.9,4.8-8.2,6.3-12.7
					c2.6-0.8,4.5-3.2,4.5-6v-8.5c0-1.9-0.8-3.5-2.1-4.7v-12.2c0,0,2.5-19-23.3-19c-25.8,0-23.2,19-23.2,19v12.2
					c-1.3,1.2-2.1,2.8-2.1,4.7v8.5c0,2.2,1.2,4.2,2.9,5.3c2.1,9.2,7.7,15.8,7.7,15.8v7.7C470.1,174.5,468.6,177.1,466.1,178.4
					L466.1,178.4z M466.1,178.4"/>
				<path class="st34" d="M486,79.3c-34.9-0.6-63.7,27.2-64.3,62.1c-0.3,19.8,8.5,37.6,22.5,49.4c0.9-0.8,1.9-1.5,3-2.1l18.9-10.3
					c2.5-1.4,4-3.9,4-6.8v-7.7c0,0-5.5-6.6-7.6-15.8c-1.8-1.1-2.9-3.1-2.9-5.3v-8.5c0-1.9,0.8-3.5,2.1-4.7v-12.2c0,0-2.5-19,23.3-19
					c25.8,0,23.3,19,23.3,19v12.2c1.3,1.2,2.1,2.8,2.1,4.7v8.5c0,2.8-1.9,5.2-4.5,6c-1.4,4.5-3.5,8.8-6.3,12.7
					c-0.7,1-1.3,1.8-1.9,2.5v7.9c0,2.9,1.6,5.6,4.3,6.9l20.2,10.1c1.2,0.6,2.3,1.4,3.3,2.2c13.6-11.4,22.4-28.3,22.7-47.5
					C548.7,108.7,520.9,79.9,486,79.3L486,79.3z M486,79.3"/>
			</g>
		</g>
		<g>
			<path class="st35" d="M550.4,165.7v10.8h-4c-1.5,0.3-2.7,1.7-2.7,3.2v2h-7.5v8.2h17v8.2h-16.3c-3.6,0-6.5,2.9-6.5,6.5
				c0,3.6,2.9,6.5,6.5,6.5v16.6c16.4-2.4,28.9-16.6,28.9-33.6C565.9,182.3,559.7,171.8,550.4,165.7L550.4,165.7z M550.4,165.7"/>
			<path class="st36" d="M513.7,174.7h-9.7c-3.9,5.5-6.1,12.2-6.1,19.5c0,0.1,0,0.3,0,0.4h15.8V182c2,0,3.6-1.6,3.6-3.6
				C517.3,176.4,515.7,174.7,513.7,174.7L513.7,174.7z M513.7,174.7"/>
			<path class="st36" d="M499.1,203.2c2.6,9.5,9.2,17.4,18,21.7v-14.9l-6.8-6.8H499.1z M499.1,203.2"/>
			<path class="st37" d="M553.2,190v8.2h-16.3c-2,0-3.9,0.9-5,2.4v-29.5c5.5,0,10.2-3.9,11.4-9c2.5,0.9,4.9,2.1,7.2,3.5v10.8h-4
				c-1.5,0.3-2.7,1.7-2.7,3.2v2h-7.5v8.2H553.2z M553.2,190"/>
			<path class="st10" d="M543.3,162.2c-1.2,5.2-5.8,9-11.4,9v-11C535.9,160.2,539.7,160.9,543.3,162.2L543.3,162.2z M543.3,162.2"/>
			<path class="st37" d="M536.9,211.3v16.6c-1.6,0.2-3.3,0.4-5,0.4v-19.3C533.1,210.3,534.9,211.3,536.9,211.3L536.9,211.3z
				 M536.9,211.3"/>
			<path class="st38" d="M531.9,160.2v11c-5.5,0-10.2-3.9-11.4-9C524.1,160.9,527.9,160.2,531.9,160.2L531.9,160.2z M531.9,160.2"/>
			<path class="st12" d="M531.9,171.2v29.5c-0.9,1.1-1.5,2.5-1.5,4.1c0,1.6,0.5,3,1.5,4.1v19.3c-5.3,0-10.4-1.2-14.8-3.4v-14.9
				l-6.8-6.8h-11.2c-0.7-2.7-1.1-5.5-1.2-8.5h15.8V182c2,0,3.6-1.6,3.6-3.6c0-2-1.6-3.6-3.6-3.6h-9.7c4-5.7,9.8-10.2,16.5-12.5
				C521.7,167.4,526.4,171.2,531.9,171.2L531.9,171.2z M531.9,171.2"/>
		</g>
	</g>
	<path class="st32" d="M673.1,316.2v15c0,18.1,14.7,32.9,32.9,32.9H737h18"/>
	<g>
		<path class="st39" d="M670.1,136.3h-97.4c-2.5,0-4.5-2-4.5-4.5V60.1c0-2.5,2-4.5,4.5-4.5h97.4c2.5,0,4.5,2,4.5,4.5v71.7
			C674.6,134.3,672.6,136.3,670.1,136.3L670.1,136.3z M670.1,136.3"/>
		<rect x="575.5" y="62.9" class="st9" width="91.7" height="62.4"/>
		<path class="st40" d="M641.1,99.6l-7-24.4c-0.2-0.8-1-1.3-1.8-1.3c-0.8,0-1.5,0.5-1.8,1.3l-6.2,21.7l-3.3-5.6
			c-0.4-0.6-1-1-1.8-0.9c-0.7,0.1-1.3,0.6-1.5,1.2l-3.9,11.7l-7.3-19.1c-0.3-0.7-1-1.2-1.8-1.2c-0.8,0-1.4,0.5-1.7,1.3L598,99.6
			h-22.5v3.7h23.9c0.8,0,1.5-0.5,1.7-1.3l3.9-11.7l7.3,19.1c0.3,0.7,0.9,1.2,1.7,1.2h0c0.8,0,1.4-0.5,1.7-1.3l4.2-12.7l3.5,5.8
			c0.4,0.6,1.1,1,1.8,0.9c0.7-0.1,1.3-0.6,1.5-1.3l5.6-19.6l5.6,19.5c0.2,0.8,0.9,1.3,1.8,1.3h27.5v-3.7H641.1z M641.1,99.6"/>
	</g>
	<g>
		<rect x="129.9" y="66.5" class="st41" width="123.9" height="165.2"/>
		<path class="st19" d="M212.5,113.7h-11.8v-11.8H183v11.8h-11.8v17.7H183v11.8h17.7v-11.8h11.8V113.7z M212.5,113.7"/>
		<path class="st42" d="M206.6,175.7h-29.5c-1.6,0-3-1.3-3-3c0-1.6,1.3-3,3-3h29.5c1.6,0,3,1.3,3,3
			C209.5,174.3,208.2,175.7,206.6,175.7L206.6,175.7z M206.6,175.7"/>
		<path class="st42" d="M218.4,187.5h-53.1c-1.6,0-3-1.3-3-3c0-1.6,1.3-3,3-3h53.1c1.6,0,3,1.3,3,3
			C221.3,186.1,220,187.5,218.4,187.5L218.4,187.5z M218.4,187.5"/>
		<path class="st42" d="M218.4,199.3h-53.1c-1.6,0-3-1.3-3-3c0-1.6,1.3-3,3-3h53.1c1.6,0,3,1.3,3,3
			C221.3,197.9,220,199.3,218.4,199.3L218.4,199.3z M218.4,199.3"/>
		<rect x="253.8" y="66.5" class="st35" width="17.7" height="29.5"/>
		<rect x="253.8" y="96" class="st43" width="17.7" height="29.5"/>
		<rect x="253.8" y="125.5" class="st12" width="17.7" height="29.5"/>
		<rect x="253.8" y="155" class="st40" width="17.7" height="29.5"/>
		<rect x="253.8" y="184.5" class="st18" width="17.7" height="29.5"/>
	</g>
	<g>
		<g>
			<defs>
				<rect id="SVGID_7_" x="740.7" y="58.1" width="55.8" height="75.7"/>
			</defs>
			<clipPath id="SVGID_8_">
				<use xlink:href="#SVGID_7_"  style="overflow:visible;"/>
			</clipPath>
			<path class="st44" d="M768.5,127.2c-11.7,0-21.2-9.5-21.2-21.2h6.6c0,8.1,6.6,14.6,14.7,14.6h0.1V58.3c0,0-17.6,23.9-22.4,31
				c-3.2,4.9-5.6,10.5-5.6,16.8c0.1,15.4,12.6,27.8,27.9,27.7v-6.6H768.5z M768.5,127.2"/>
			<path class="st45" d="M768.5,120.7c-8.1,0-14.6-6.5-14.7-14.6h-6.6c0,11.7,9.6,21.2,21.2,21.2h0.2v-6.6H768.5z M768.5,120.7"/>
			<path class="st46" d="M790.9,89.3c-3.4-5.2-22.4-31-22.4-31v75.5c15.4,0.1,27.9-12.3,27.9-27.7C796.5,99.8,794.2,94.2,790.9,89.3
				L790.9,89.3z M790.9,89.3"/>
		</g>
	</g>
	<polygon class="st47" points="713.6,93.2 713.6,85.9 708,85.9 708,93.2 701,93.2 701,98.6 708,98.6 708,105.9 713.6,105.9 
		713.6,98.6 720.5,98.6 720.5,93.2 	"/>
</g>
</svg>
