<?xml version="1.0" encoding="utf-8"?>
<!-- Generator: Adobe Illustrator 19.0.0, SVG Export Plug-In . SVG Version: 6.00 Build 0)  -->
<svg version="1.1" id="Layer_1" xmlns="http://www.w3.org/2000/svg" xmlns:xlink="http://www.w3.org/1999/xlink" x="0px" y="0px"
	 viewBox="0 0 1500 525" style="enable-background:new 0 0 1500 525;" xml:space="preserve">
<style type="text/css">
	.st0{fill:#FFAC33;}
	.st1{fill:#FFFFFF;}
	.st2{fill:#FFC931;}
	.st3{fill:#EF1616;}
	.st4{fill:#0D61A5;}
	.st5{fill:#157AAA;}
	.st6{fill:#FCA310;}
	.st7{clip-path:url(#SVGID_2_);}
	.st8{clip-path:url(#SVGID_4_);fill:#EF1616;}
	.st9{fill:#004495;}
	.st10{fill:#BC0F0F;}
	.st11{fill:#F9B796;}
	.st12{fill:#56606D;}
	.st13{fill:#E7E7E7;}
	.st14{clip-path:url(#SVGID_6_);}
	.st15{opacity:5.000000e-02;}
	.st16{fill:none;stroke:#FFFFFF;stroke-width:10;stroke-miterlimit:10;}
	.st17{fill:none;stroke:#FFFFFF;stroke-width:9.9384;stroke-miterlimit:10;}
	.st18{fill:none;stroke:#FFFFFF;stroke-width:10.7638;stroke-miterlimit:10;}
	.st19{fill:#F4F1EA;}
	.st20{fill:#E6E6E6;}
	.st21{fill:#B3CDC7;}
	.st22{fill:#201329;}
	.st23{fill:#00AFB6;}
	.st24{fill:none;stroke:#FCA310;stroke-width:6.1274;stroke-miterlimit:10;stroke-dasharray:12.2548;}
	.st25{fill:#FFDF02;}
	.st26{fill:none;stroke:#FFC931;stroke-width:6;stroke-miterlimit:10;}
	.st27{fill:#556080;}
	.st28{fill:#424A60;}
	.st29{fill:#2AD382;}
	.st30{fill:#7383BF;}
	.st31{fill:#3E465B;}
	.st32{fill:#2BDA72;}
	.st33{fill:#E74424;}
	.st34{fill:#D43D21;}
	.st35{fill:#F7F1E6;}
	.st36{fill:#EFCE4A;}
	.st37{clip-path:url(#SVGID_8_);fill:#F4F1EA;}
	.st38{clip-path:url(#SVGID_8_);fill:#B3CDC7;}
	.st39{clip-path:url(#SVGID_10_);fill:#EFCE4A;}
	.st40{fill:#F4EFDC;}
	.st41{fill:#EBBA16;}
	.st42{fill:#CEC9AE;}
	.st43{fill:#D1BF86;}
	.st44{opacity:0.1;}
	.st45{fill:#DD9F83;}
	.st46{fill:#EDEADA;}
	.st47{fill:#CECCC0;}
	.st48{opacity:0.5;fill:#CECCC0;}
	.st49{clip-path:url(#SVGID_12_);fill:#BDDBFF;}
	.st50{clip-path:url(#SVGID_12_);fill:#9BC9FF;}
	.st51{fill:#CCCCCC;}
</style>
<circle class="st0" cx="2195.5" cy="-516.3" r="53"/>
<text transform="matrix(1 0 0 1 2174.5125 -497.4465)" class="st1" style="font-family:'ProximaNova-Bold'; font-size:61.2741px;">A</text>
<circle class="st2" cx="2089.6" cy="-778.3" r="53"/>
<text transform="matrix(1 0 0 1 2201.7551 -676.4505)" class="st1" style="font-family:'ProximaNova-Bold'; font-size:61.2741px;">B</text>
<rect x="2276.6" y="-729.4" class="st3" width="75.2" height="75.2"/>
<rect x="2294.4" y="-610.3" class="st4" width="39.6" height="39.6"/>
<path class="st5" d="M2350.6-437.8v2.4c0,16.9-13.7,30.7-30.7,30.7h-2.4c-16.9,0-30.7-13.7-30.7-30.7v-2.4
	c0-16.9,13.7-30.7,30.7-30.7h2.4C2336.8-468.5,2350.6-454.7,2350.6-437.8z"/>
<path class="st6" d="M2484.3-550.9C2484.3-550.9,2484.2-550.9,2484.3-550.9c-5.6,0-10.8,3-14.7,8.4c-2.9,4-6.5,6.2-10.3,6.3
	c-3.7,0.1-7.4-1.9-10.2-5.7l-0.3-0.4c-4.1-5.2-9.4-8-14.9-7.6c-3.9,0.2-7.7,2-10.8,5l-0.1-0.1c-0.1,0.2-0.3,0.4-0.4,0.7
	c-1,1-2,2.2-2.8,3.5c-2.3,2.2-4.9,3.5-7.6,3.6c-3.9,0.2-7.6-1.8-10.6-5.7l-0.3-0.4c-3.9-5-9-7.7-14.4-7.7
	c-5.5,0.1-10.6,3.1-14.4,8.4c-2.9,4-6.6,6.3-10.5,6.3c0,0,0,0-0.1,0c-3.8,0-7.5-2.2-10.4-6.1l-4.1,3c3.9,5.3,9,8.2,14.5,8.2
	c0,0,0.1,0,0.1,0c5.5,0,10.7-3,14.6-8.4c2.9-4,6.5-6.2,10.3-6.3c3.7-0.1,7.4,1.9,10.2,5.7l0.3,0.4c4.1,5.2,9.4,8,14.9,7.6
	c3.9-0.2,7.7-2,10.8-5l0.1,0.1c0.1-0.2,0.3-0.4,0.4-0.7c1-1,2-2.2,2.8-3.5c2.3-2.2,4.9-3.5,7.6-3.6c3.9-0.2,7.6,1.8,10.6,5.7
	l0.3,0.4c3.8,4.9,8.8,7.7,14.1,7.7c0.1,0,0.2,0,0.3,0c5.5-0.1,10.6-3.1,14.4-8.4c2.9-4,6.6-6.3,10.5-6.3c3.8,0,7.5,2.1,10.4,6.1
	l4.1-3C2494.9-548,2489.8-550.9,2484.3-550.9z"/>
<path class="st5" d="M2476.9-630.6C2476.9-630.6,2476.9-630.6,2476.9-630.6c0-5.6-3-10.8-8.4-14.7c-4-2.9-6.2-6.5-6.3-10.3
	c-0.1-3.7,1.9-7.4,5.7-10.2l0.4-0.3c5.2-4.1,8-9.4,7.6-14.9c-0.2-3.9-2-7.7-5-10.8l0.1-0.1c-0.2-0.1-0.4-0.3-0.6-0.4
	c-1-1-2.2-2-3.5-2.8c-2.2-2.3-3.5-4.9-3.6-7.6c-0.2-3.9,1.8-7.6,5.7-10.6l0.4-0.3c5-3.9,7.7-9,7.7-14.4c-0.1-5.5-3.1-10.6-8.4-14.4
	c-4-2.9-6.3-6.6-6.3-10.5c0,0,0,0,0-0.1c0-3.8,2.2-7.5,6.1-10.4l-3-4.1c-5.3,3.9-8.2,9-8.2,14.5c0,0,0,0.1,0,0.1
	c0,5.5,3,10.7,8.4,14.6c4,2.9,6.2,6.5,6.3,10.3c0.1,3.7-1.9,7.4-5.7,10.2l-0.4,0.3c-5.2,4.1-8,9.4-7.6,14.9c0.2,3.9,2,7.7,5,10.8
	l-0.1,0.1c0.2,0.1,0.4,0.3,0.7,0.4c1,1,2.2,2,3.5,2.8c2.2,2.3,3.5,4.9,3.6,7.6c0.2,3.9-1.8,7.6-5.7,10.6l-0.4,0.3
	c-4.9,3.8-7.7,8.8-7.7,14.1c0,0.1,0,0.2,0,0.3c0.1,5.5,3.1,10.6,8.4,14.4c4,2.9,6.3,6.6,6.3,10.5c0,3.8-2.1,7.5-6.1,10.4l3,4.1
	C2474-620,2476.9-625.1,2476.9-630.6z"/>
<polygon class="st3" points="2254.9,-767.8 2254.9,-778.3 2245.3,-778.3 2245.3,-767.8 2235,-767.8 2235,-759.5 2245.3,-759.5 
	2245.3,-748.5 2254.9,-748.5 2254.9,-759.5 2265.2,-759.5 2265.2,-767.8 "/>
<g>
	<g>
		<defs>
			<rect id="SVGID_1_" x="-1517.1" y="895.9" width="59.3" height="30.9"/>
		</defs>
		<clipPath id="SVGID_2_">
			<use xlink:href="#SVGID_1_"  style="overflow:visible;"/>
		</clipPath>
		<g class="st7">
			<defs>
				<rect id="SVGID_3_" x="-1675" y="642" width="375" height="667"/>
			</defs>
			<clipPath id="SVGID_4_">
				<use xlink:href="#SVGID_3_"  style="overflow:visible;"/>
			</clipPath>
			<rect x="-1522.1" y="890.9" class="st8" width="69.3" height="40.9"/>
		</g>
	</g>
</g>
<rect x="-1699.7" y="792.2" class="st9" width="137.3" height="52"/>
<rect x="-1630.7" y="906.9" class="st10" width="62.6" height="34.2"/>
<rect x="-1437.1" y="823.1" class="st2" width="142.1" height="23.5"/>
<rect x="-1398.8" y="884.1" class="st0" width="71.2" height="98.4"/>
<rect x="-1246.7" y="884.1" class="st11" width="71.2" height="98.4"/>
<rect x="-1883.6" y="906" class="st12" width="33.5" height="33.9"/>
<rect x="-1680" y="1032.6" class="st13" width="385" height="59"/>
<g id="K1ADeL_1_">
	
		<image style="overflow:visible;" width="450" height="470" id="K1ADeL_2_" xlink:href="8B1D6628DFB5186F.png"  transform="matrix(1 0 0 1 -1712.5 161.9996)">
	</image>
</g>
<g>
	<defs>
		<rect id="SVGID_5_" x="-101.7" y="0" width="1703.5" height="525"/>
	</defs>
	<clipPath id="SVGID_6_">
		<use xlink:href="#SVGID_5_"  style="overflow:visible;"/>
	</clipPath>
	<g class="st14">
		<rect x="-24.8" y="-33.1" class="st9" width="1563.5" height="591.2"/>
		<g>
			<g class="st15">
				<circle class="st16" cx="275.2" cy="283.3" r="74.4"/>
				<circle class="st16" cx="275.2" cy="283.3" r="130.9"/>
				<circle class="st16" cx="275.2" cy="283.3" r="182.3"/>
				<circle class="st16" cx="275.2" cy="283.3" r="236.3"/>
				<circle class="st16" cx="275.2" cy="283.3" r="291.7"/>
				<circle class="st16" cx="275.2" cy="283.3" r="358"/>
				<circle class="st16" cx="275.2" cy="283.3" r="439"/>
				<circle class="st16" cx="275.2" cy="283.3" r="527.1"/>
				<circle class="st16" cx="275.2" cy="283.3" r="612.6"/>
				<circle class="st16" cx="275.2" cy="283.3" r="720.6"/>
				<circle class="st16" cx="275.2" cy="283.3" r="822.4"/>
				<circle class="st16" cx="275.2" cy="283.3" r="921.7"/>
				<circle class="st16" cx="275.2" cy="283.3" r="1014.6"/>
				<circle class="st17" cx="275.2" cy="283.3" r="1107.7"/>
				<circle class="st18" cx="275.2" cy="283.3" r="1199.7"/>
			</g>
			<path class="st11" d="M1251.2,348.5v-81.8c0-12-9.8-21.9-21.9-21.9h0c-12,0-21.9,9.8-21.9,21.9v81.8c0,12,9.8,21.9,21.9,21.9h0
				C1241.4,370.3,1251.2,360.5,1251.2,348.5z"/>
			<rect x="1124" y="294.4" class="st11" width="127.2" height="239.2"/>
			<g>
				<path class="st11" d="M347.3,301.4h51.9c12,0,21.9-9.8,21.9-21.9v0c0-12-9.8-21.9-21.9-21.9h-51.9c-12,0-21.9,9.8-21.9,21.9v0
					C325.4,291.6,335.3,301.4,347.3,301.4z"/>
				<path class="st11" d="M376,345.1h51.9c12,0,21.9-9.8,21.9-21.9v0c0-12-9.8-21.9-21.9-21.9H376c-12,0-21.9,9.8-21.9,21.9v0
					C354.1,335.3,364,345.1,376,345.1z"/>
				<path class="st11" d="M379,388.8h81.8c12,0,21.9-9.8,21.9-21.9v0c0-12-9.8-21.9-21.9-21.9H379c-12,0-21.9,9.8-21.9,21.9v0
					C357.1,379,366.9,388.8,379,388.8z"/>
				<rect x="257.8" y="257.7" class="st11" width="128.3" height="131.2"/>
			</g>
			<g>
				<path class="st19" d="M1089.1,397h116.3c9.5,0,17.3-7.8,17.3-17.3V145.3c0-9.5-7.8-17.3-17.3-17.3h-116.3
					c-9.5,0-17.3,7.8-17.3,17.3v234.5C1071.8,389.2,1079.6,397,1089.1,397z"/>
				<rect x="1081.4" y="168" class="st1" width="131.6" height="188.5"/>
				<circle class="st20" cx="1147.2" cy="376.6" r="11.6"/>
				<path class="st20" d="M1168.6,151.3h-42.7c-1,0-1.8-0.8-1.8-1.8v-2.3c0-1,0.8-1.8,1.8-1.8h42.7c1,0,1.8,0.8,1.8,1.8v2.3
					C1170.4,150.5,1169.6,151.3,1168.6,151.3z"/>
				<circle class="st20" cx="1180.7" cy="148.3" r="3"/>
			</g>
			<rect x="-164.8" y="255.9" class="st11" width="431.3" height="134.6"/>
			<path class="st19" d="M297.1,401.1H255c-3.5,0-6.3-2.8-6.3-6.3v-69.1h54.7v69.1C303.4,398.2,300.6,401.1,297.1,401.1z"/>
			<rect x="248.7" y="325.6" class="st21" width="54.7" height="13.8"/>
			<path class="st22" d="M299.2,330.5h-48.2c-8.2,0-14.9-6.7-14.9-14.9v-48.2c0-8.2,6.7-14.9,14.9-14.9h48.2
				c8.2,0,14.9,6.7,14.9,14.9v48.2C314.1,323.8,307.4,330.5,299.2,330.5z"/>
			<path class="st3" d="M298.3,319.8h-46.2c-2.8,0-5.2-2.3-5.2-5.2v-46.2c0-2.8,2.3-5.2,5.2-5.2h46.2c2.8,0,5.2,2.3,5.2,5.2v46.2
				C303.4,317.5,301.1,319.8,298.3,319.8z"/>
			<circle class="st6" cx="923.3" cy="318.6" r="9"/>
			<circle class="st23" cx="1049.9" cy="318.6" r="9"/>
			<line class="st24" x1="943.2" y1="318.6" x2="1025.7" y2="318.6"/>
			<rect x="978.4" y="243.4" class="st25" width="31.3" height="31.3"/>
			<rect x="1222.6" y="70.3" class="st25" width="24" height="24"/>
			<rect x="759.2" y="418.3" class="st23" width="31.3" height="31.3"/>
			<rect x="867.9" y="168.6" class="st23" width="31.3" height="31.3"/>
			<path class="st4" d="M805.2,338.9h-5.8c-7.1,0-12.8-5.7-12.8-12.8v-5.8c0-7.1,5.7-12.8,12.8-12.8h5.8c7.1,0,12.8,5.7,12.8,12.8
				v5.8C817.9,333.2,812.2,338.9,805.2,338.9z"/>
			<path class="st5" d="M858.3,504.9L858.3,504.9c-14,0-25.3-11.3-25.3-25.3v0c0-14,11.3-25.3,25.3-25.3l0,0
				c14,0,25.3,11.3,25.3,25.3v0C883.5,493.6,872.2,504.9,858.3,504.9z"/>
			<path class="st5" d="M541.6,77.3L541.6,77.3c-14,0-25.3-11.3-25.3-25.3v0c0-14,11.3-25.3,25.3-25.3h0c14,0,25.3,11.3,25.3,25.3v0
				C566.9,66,555.6,77.3,541.6,77.3z"/>
			<rect x="1266.3" y="157.2" class="st6" width="39.6" height="39.6"/>
			<path class="st25" d="M460.7,120.7L460.7,120.7c0,10.9-8.9,19.8-19.8,19.8h0c-10.9,0-19.8-8.9-19.8-19.8v0
				c0-10.9,8.9-19.8,19.8-19.8h0C451.8,101,460.7,109.8,460.7,120.7z"/>
			<path class="st2" d="M820.6,379.2C820.5,379.2,820.5,379.2,820.6,379.2c-5.6,0-10.8,3-14.7,8.4c-2.9,4-6.5,6.2-10.3,6.3
				c-3.7,0.1-7.4-1.9-10.2-5.7l-0.3-0.4c-4.1-5.2-9.4-8-14.9-7.6c-3.9,0.2-7.7,2-10.8,5l-0.1-0.1c-0.1,0.2-0.3,0.4-0.4,0.7
				c-1,1-2,2.2-2.8,3.5c-2.3,2.2-4.9,3.5-7.6,3.6c-3.9,0.2-7.6-1.8-10.6-5.7l-0.3-0.4c-3.9-5-9-7.7-14.4-7.7
				c-5.5,0.1-10.6,3.1-14.4,8.4c-2.9,4-6.6,6.3-10.5,6.3c0,0,0,0-0.1,0c-3.8,0-7.5-2.2-10.4-6.1l-4.1,3c3.9,5.3,9,8.2,14.5,8.2
				c0,0,0.1,0,0.1,0c5.5,0,10.7-3,14.6-8.4c2.9-4,6.5-6.2,10.3-6.3c3.7-0.1,7.4,1.9,10.2,5.7l0.3,0.4c4.1,5.2,9.4,8,14.9,7.6
				c3.9-0.2,7.7-2,10.8-5l0.1,0.1c0.1-0.2,0.3-0.4,0.4-0.7c1-1,2-2.2,2.8-3.5c2.3-2.2,4.9-3.5,7.6-3.6c3.9-0.2,7.6,1.8,10.6,5.7
				l0.3,0.4c3.8,4.9,8.8,7.7,14.1,7.7c0.1,0,0.2,0,0.3,0c5.5-0.1,10.6-3.1,14.4-8.4c2.9-4,6.6-6.3,10.5-6.3c3.8,0,7.5,2.1,10.4,6.1
				l4.1-3C831.2,382.1,826,379.2,820.6,379.2z"/>
			<path class="st2" d="M984.5,67.4C984.4,67.4,984.4,67.4,984.5,67.4c-5.6,0-10.8,3-14.7,8.4c-2.9,4-6.5,6.2-10.3,6.3
				c-3.7,0.1-7.4-1.9-10.2-5.7l-0.3-0.4c-4.1-5.2-9.4-8-14.9-7.6c-3.9,0.2-7.7,2-10.8,5l-0.1-0.1c-0.1,0.2-0.3,0.4-0.4,0.7
				c-1,1-2,2.2-2.8,3.5c-2.3,2.2-4.9,3.5-7.6,3.6c-3.9,0.2-7.6-1.8-10.6-5.7l-0.3-0.4c-3.9-5-9-7.7-14.4-7.7
				c-5.5,0.1-10.6,3.1-14.4,8.4c-2.9,4-6.6,6.3-10.5,6.3c0,0,0,0-0.1,0c-3.8,0-7.5-2.2-10.4-6.1l-4.1,3c3.9,5.3,9,8.2,14.5,8.2
				c0,0,0.1,0,0.1,0c5.5,0,10.7-3,14.6-8.4c2.9-4,6.5-6.2,10.3-6.3c3.7-0.1,7.4,1.9,10.2,5.7l0.3,0.4c4.1,5.2,9.4,8,14.9,7.6
				c3.9-0.2,7.7-2,10.8-5l0.1,0.1c0.1-0.2,0.3-0.4,0.4-0.7c1-1,2-2.2,2.8-3.5c2.3-2.2,4.9-3.5,7.6-3.6c3.9-0.2,7.6,1.8,10.6,5.7
				l0.3,0.4c3.8,4.9,8.8,7.7,14.1,7.7c0.1,0,0.2,0,0.3,0c5.5-0.1,10.6-3.1,14.4-8.4c2.9-4,6.6-6.3,10.5-6.3c3.8,0,7.5,2.1,10.4,6.1
				l4.1-3C995,70.3,989.9,67.4,984.5,67.4z"/>
			<path class="st26" d="M735,239.4v22.9c0,8.9-7.2,16.1-16.1,16.1H696c-8.9,0-16.1-7.2-16.1-16.1v-22.9c0-8.9,7.2-16.1,16.1-16.1
				h22.9C727.7,223.3,735,230.5,735,239.4z"/>
			<path class="st24" d="M479.4,120.7c12.6,0,22.8,10.2,22.8,22.8v75.8c0,17.4,14.1,31.5,31.5,31.5h132.5"/>
			<polygon class="st25" points="822.7,126.6 822.7,116 813.2,116 813.2,126.6 802.9,126.6 802.9,134.8 813.2,134.8 813.2,145.8 
				822.7,145.8 822.7,134.8 833,134.8 833,126.6 			"/>
			<polygon class="st25" points="1018.8,433.9 1018.8,423.4 1009.2,423.4 1009.2,433.9 998.9,433.9 998.9,442.2 1009.2,442.2 
				1009.2,453.2 1018.8,453.2 1018.8,442.2 1029.1,442.2 1029.1,433.9 			"/>
			<polygon class="st6" points="1251.4,214.5 1251.4,203.9 1241.9,203.9 1241.9,214.5 1231.6,214.5 1231.6,222.7 1241.9,222.7 
				1241.9,233.7 1251.4,233.7 1251.4,222.7 1261.7,222.7 1261.7,214.5 			"/>
			<g>
				<g>
					<path class="st19" d="M276,285.5c1-2.3,3.2-4,5.9-4c3.5,0,6.1,3,6.4,6.6c0,0,0.2,0.9-0.2,2.5c-0.5,2.2-1.7,4.1-3.4,5.6
						l-8.7,7.8l-8.6-7.8c-1.6-1.5-2.9-3.4-3.4-5.6c-0.4-1.6-0.2-2.5-0.2-2.5c0.3-3.6,2.9-6.6,6.4-6.6
						C272.9,281.6,275,283.2,276,285.5L276,285.5z M276,285.5"/>
				</g>
			</g>
			<path class="st24" d="M276.1,242.3v-27.8c0-15.9,12.9-28.7,28.7-28.7h108c15.5,0,28.1-12.6,28.1-28.1"/>
			<g>
				<path class="st27" d="M751.8,133.5H663c-3.5,0-6.3-2.8-6.3-6.3v-20.6c0-3.5,2.8-6.3,6.3-6.3h88.8c3.5,0,6.3,2.8,6.3,6.3v20.6
					C758.1,130.7,755.3,133.5,751.8,133.5L751.8,133.5z M751.8,133.5"/>
				<path class="st28" d="M751.8,166.8H663c-3.5,0-6.3-2.8-6.3-6.3v-20.6c0-3.5,2.8-6.3,6.3-6.3h88.8c3.5,0,6.3,2.8,6.3,6.3v20.6
					C758.1,163.9,755.3,166.8,751.8,166.8L751.8,166.8z M751.8,166.8"/>
				<path class="st27" d="M751.8,200H663c-3.5,0-6.3-2.8-6.3-6.3v-20.6c0-3.5,2.8-6.3,6.3-6.3h88.8c3.5,0,6.3,2.8,6.3,6.3v20.6
					C758.1,197.2,755.3,200,751.8,200L751.8,200z M751.8,200"/>
				<path class="st29" d="M679.4,116.9c0,3.4-2.7,6.1-6.1,6.1c-3.4,0-6.1-2.7-6.1-6.1c0-3.4,2.7-6.1,6.1-6.1
					C676.7,110.8,679.4,113.5,679.4,116.9L679.4,116.9z M679.4,116.9"/>
				<path class="st30" d="M744.1,114.3c0,1-0.8,1.8-1.8,1.8c-1,0-1.8-0.8-1.8-1.8c0-1,0.8-1.7,1.8-1.7
					C743.3,112.5,744.1,113.3,744.1,114.3L744.1,114.3z M744.1,114.3"/>
				<path class="st30" d="M737.1,114.3c0,1-0.8,1.8-1.8,1.8c-1,0-1.8-0.8-1.8-1.8c0-1,0.8-1.7,1.8-1.7
					C736.4,112.5,737.1,113.3,737.1,114.3L737.1,114.3z M737.1,114.3"/>
				<path class="st30" d="M747.6,119.5c0,1-0.8,1.8-1.8,1.8c-1,0-1.8-0.8-1.8-1.8c0-1,0.8-1.8,1.8-1.8
					C746.8,117.8,747.6,118.6,747.6,119.5L747.6,119.5z M747.6,119.5"/>
				<path class="st30" d="M740.6,119.5c0,1-0.8,1.8-1.7,1.8c-1,0-1.8-0.8-1.8-1.8c0-1,0.8-1.8,1.8-1.8
					C739.9,117.8,740.6,118.6,740.6,119.5L740.6,119.5z M740.6,119.5"/>
				<path class="st30" d="M730.1,114.3c0,1-0.8,1.8-1.8,1.8c-1,0-1.8-0.8-1.8-1.8c0-1,0.8-1.7,1.8-1.7
					C729.4,112.5,730.1,113.3,730.1,114.3L730.1,114.3z M730.1,114.3"/>
				<path class="st30" d="M733.6,119.5c0,1-0.8,1.8-1.8,1.8c-1,0-1.7-0.8-1.7-1.8c0-1,0.8-1.8,1.7-1.8
					C732.9,117.8,733.6,118.6,733.6,119.5L733.6,119.5z M733.6,119.5"/>
				<path class="st30" d="M723.1,114.3c0,1-0.8,1.8-1.7,1.8c-1,0-1.8-0.8-1.8-1.8c0-1,0.8-1.7,1.8-1.7
					C722.4,112.5,723.1,113.3,723.1,114.3L723.1,114.3z M723.1,114.3"/>
				<path class="st30" d="M726.6,119.5c0,1-0.8,1.8-1.8,1.8c-1,0-1.8-0.8-1.8-1.8c0-1,0.8-1.8,1.8-1.8
					C725.9,117.8,726.6,118.6,726.6,119.5L726.6,119.5z M726.6,119.5"/>
				<path class="st30" d="M716.1,114.3c0,1-0.8,1.8-1.8,1.8c-1,0-1.7-0.8-1.7-1.8c0-1,0.8-1.7,1.7-1.7
					C715.4,112.5,716.1,113.3,716.1,114.3L716.1,114.3z M716.1,114.3"/>
				<path class="st30" d="M719.6,119.5c0,1-0.8,1.8-1.8,1.8s-1.8-0.8-1.8-1.8c0-1,0.8-1.8,1.8-1.8S719.6,118.6,719.6,119.5
					L719.6,119.5z M719.6,119.5"/>
				<path class="st29" d="M679.4,150.1c0,3.4-2.7,6.1-6.1,6.1c-3.4,0-6.1-2.7-6.1-6.1c0-3.4,2.7-6.1,6.1-6.1
					C676.7,144,679.4,146.8,679.4,150.1L679.4,150.1z M679.4,150.1"/>
				<path class="st30" d="M744.1,147.5c0,1-0.8,1.7-1.8,1.7c-1,0-1.8-0.8-1.8-1.7c0-1,0.8-1.8,1.8-1.8
					C743.3,145.8,744.1,146.6,744.1,147.5L744.1,147.5z M744.1,147.5"/>
				<path class="st30" d="M737.1,147.5c0,1-0.8,1.7-1.8,1.7c-1,0-1.8-0.8-1.8-1.7c0-1,0.8-1.8,1.8-1.8
					C736.4,145.8,737.1,146.6,737.1,147.5L737.1,147.5z M737.1,147.5"/>
				<path class="st30" d="M747.6,152.8c0,1-0.8,1.8-1.8,1.8c-1,0-1.8-0.8-1.8-1.8s0.8-1.8,1.8-1.8
					C746.8,151,747.6,151.8,747.6,152.8L747.6,152.8z M747.6,152.8"/>
				<path class="st30" d="M740.6,152.8c0,1-0.8,1.8-1.7,1.8c-1,0-1.8-0.8-1.8-1.8s0.8-1.8,1.8-1.8
					C739.9,151,740.6,151.8,740.6,152.8L740.6,152.8z M740.6,152.8"/>
				<path class="st30" d="M730.1,147.5c0,1-0.8,1.7-1.8,1.7c-1,0-1.8-0.8-1.8-1.7c0-1,0.8-1.8,1.8-1.8
					C729.4,145.8,730.1,146.6,730.1,147.5L730.1,147.5z M730.1,147.5"/>
				<path class="st30" d="M733.6,152.8c0,1-0.8,1.8-1.8,1.8c-1,0-1.7-0.8-1.7-1.8s0.8-1.8,1.7-1.8
					C732.9,151,733.6,151.8,733.6,152.8L733.6,152.8z M733.6,152.8"/>
				<path class="st30" d="M723.1,147.5c0,1-0.8,1.7-1.7,1.7c-1,0-1.8-0.8-1.8-1.7c0-1,0.8-1.8,1.8-1.8
					C722.4,145.8,723.1,146.6,723.1,147.5L723.1,147.5z M723.1,147.5"/>
				<path class="st30" d="M726.6,152.8c0,1-0.8,1.8-1.8,1.8c-1,0-1.8-0.8-1.8-1.8s0.8-1.8,1.8-1.8
					C725.9,151,726.6,151.8,726.6,152.8L726.6,152.8z M726.6,152.8"/>
				<path class="st30" d="M716.1,147.5c0,1-0.8,1.7-1.8,1.7c-1,0-1.7-0.8-1.7-1.7c0-1,0.8-1.8,1.7-1.8
					C715.4,145.8,716.1,146.6,716.1,147.5L716.1,147.5z M716.1,147.5"/>
				<path class="st30" d="M719.6,152.8c0,1-0.8,1.8-1.8,1.8s-1.8-0.8-1.8-1.8s0.8-1.8,1.8-1.8S719.6,151.8,719.6,152.8L719.6,152.8z
					 M719.6,152.8"/>
				<path class="st29" d="M679.4,183.4c0,3.4-2.7,6.1-6.1,6.1c-3.4,0-6.1-2.7-6.1-6.1c0-3.4,2.7-6.1,6.1-6.1
					C676.7,177.3,679.4,180,679.4,183.4L679.4,183.4z M679.4,183.4"/>
				<path class="st30" d="M744.1,180.8c0,1-0.8,1.8-1.8,1.8c-1,0-1.8-0.8-1.8-1.8c0-1,0.8-1.8,1.8-1.8
					C743.3,179,744.1,179.8,744.1,180.8L744.1,180.8z M744.1,180.8"/>
				<path class="st30" d="M737.1,180.8c0,1-0.8,1.8-1.8,1.8c-1,0-1.8-0.8-1.8-1.8c0-1,0.8-1.8,1.8-1.8
					C736.4,179,737.1,179.8,737.1,180.8L737.1,180.8z M737.1,180.8"/>
				<path class="st30" d="M747.6,186c0,1-0.8,1.8-1.8,1.8c-1,0-1.8-0.8-1.8-1.8c0-1,0.8-1.8,1.8-1.8
					C746.8,184.3,747.6,185,747.6,186L747.6,186z M747.6,186"/>
				<path class="st30" d="M740.6,186c0,1-0.8,1.8-1.7,1.8c-1,0-1.8-0.8-1.8-1.8c0-1,0.8-1.8,1.8-1.8
					C739.9,184.3,740.6,185,740.6,186L740.6,186z M740.6,186"/>
				<path class="st30" d="M730.1,180.8c0,1-0.8,1.8-1.8,1.8c-1,0-1.8-0.8-1.8-1.8c0-1,0.8-1.8,1.8-1.8
					C729.4,179,730.1,179.8,730.1,180.8L730.1,180.8z M730.1,180.8"/>
				<path class="st30" d="M733.6,186c0,1-0.8,1.8-1.8,1.8c-1,0-1.7-0.8-1.7-1.8c0-1,0.8-1.8,1.7-1.8
					C732.9,184.3,733.6,185,733.6,186L733.6,186z M733.6,186"/>
				<path class="st30" d="M723.1,180.8c0,1-0.8,1.8-1.7,1.8c-1,0-1.8-0.8-1.8-1.8c0-1,0.8-1.8,1.8-1.8
					C722.4,179,723.1,179.8,723.1,180.8L723.1,180.8z M723.1,180.8"/>
				<path class="st30" d="M726.6,186c0,1-0.8,1.8-1.8,1.8c-1,0-1.8-0.8-1.8-1.8c0-1,0.8-1.8,1.8-1.8
					C725.9,184.3,726.6,185,726.6,186L726.6,186z M726.6,186"/>
				<path class="st30" d="M716.1,180.8c0,1-0.8,1.8-1.8,1.8c-1,0-1.7-0.8-1.7-1.8c0-1,0.8-1.8,1.7-1.8
					C715.4,179,716.1,179.8,716.1,180.8L716.1,180.8z M716.1,180.8"/>
				<path class="st30" d="M719.6,186c0,1-0.8,1.8-1.8,1.8s-1.8-0.8-1.8-1.8c0-1,0.8-1.8,1.8-1.8S719.6,185,719.6,186L719.6,186z
					 M719.6,186"/>
			</g>
			<line class="st26" x1="707.4" y1="223.3" x2="707.4" y2="200"/>
			<g>
				<path class="st31" d="M557.1,277.5h-90c-2.3,0-4.2-1.9-4.2-4.2v-66.3c0-2.3,1.9-4.2,4.2-4.2h90c2.3,0,4.2,1.9,4.2,4.2v66.3
					C561.3,275.7,559.4,277.5,557.1,277.5L557.1,277.5z M557.1,277.5"/>
				<rect x="469.7" y="209.7" class="st27" width="84.8" height="57.7"/>
				<path class="st32" d="M530.3,243.6l-6.4-22.5c-0.2-0.7-0.9-1.2-1.6-1.2c-0.8,0-1.4,0.5-1.6,1.2l-5.7,20l-3.1-5.2
					c-0.3-0.6-1-0.9-1.6-0.8c-0.7,0.1-1.2,0.5-1.4,1.1l-3.6,10.8l-6.8-17.6c-0.3-0.7-0.9-1.1-1.6-1.1c-0.7,0-1.3,0.5-1.6,1.2
					l-4.7,14.1h-20.8v3.4h22.1c0.7,0,1.4-0.5,1.6-1.2l3.6-10.8l6.8,17.6c0.2,0.7,0.9,1.1,1.6,1.1h0c0.7,0,1.3-0.5,1.6-1.2l3.9-11.8
					l3.2,5.4c0.3,0.6,1,0.9,1.7,0.8c0.7-0.1,1.2-0.6,1.4-1.2l5.2-18.1l5.2,18c0.2,0.7,0.9,1.2,1.6,1.2h25.4v-3.4H530.3z
					 M530.3,243.6"/>
			</g>
			<g>
				<path class="st33" d="M656.1,294.4h-67.5c-6.1,0-11.1,5-11.1,11.1v66.8c0,6.1,5,11.1,11.1,11.1h56v-11.6c0-6.1,5-11.1,11.1-11.1
					l11.6-0.6v-54.7C667.2,299.4,662.2,294.4,656.1,294.4L656.1,294.4z M645.3,340.9c0,3.2-2.6,5.9-5.9,5.9h-9.3v9.3
					c0,3.2-2.6,5.9-5.9,5.9h-3.9c-3.2,0-5.9-2.6-5.9-5.9v-9.3h-9.3c-3.2,0-5.9-2.6-5.9-5.9V337c0-3.2,2.6-5.9,5.9-5.9h9.3v-9.3
					c0-3.2,2.6-5.9,5.9-5.9h3.9c3.2,0,5.9,2.6,5.9,5.9v9.3h9.3c3.2,0,5.9,2.6,5.9,5.9V340.9z M645.3,340.9"/>
				<path class="st34" d="M644.5,371.6v11.8l22.6-23.2h-11.3C649.6,360.2,644.5,365.3,644.5,371.6L644.5,371.6z M644.5,371.6"/>
				<path class="st35" d="M639.5,331.1h-9.3v-9.3c0-3.2-2.6-5.9-5.9-5.9h-3.9c-3.2,0-5.9,2.6-5.9,5.9v9.3h-9.3
					c-3.2,0-5.9,2.6-5.9,5.9v3.9c0,3.2,2.6,5.9,5.9,5.9h9.3v9.3c0,3.2,2.6,5.9,5.9,5.9h3.9c3.2,0,5.9-2.6,5.9-5.9v-9.3h9.3
					c3.2,0,5.9-2.6,5.9-5.9V337C645.3,333.7,642.7,331.1,639.5,331.1L639.5,331.1z M639.5,331.1"/>
			</g>
			<g>
				<path class="st28" d="M306.5,97.8c-0.9-5.7-14.2-10.2-30.4-10.2c-16.2,0-29.5,4.5-30.4,10.2h-0.1v47h0.1
					c0.9,5.7,14.2,10.2,30.4,10.2c16.2,0,29.5-4.5,30.4-10.2h0.1L306.5,97.8L306.5,97.8z M306.5,97.8"/>
				<path class="st6" d="M276.1,139.7c-16.8,0-30.5-4.8-30.5-10.8v15.9h0.1c0.9,5.7,14.2,10.2,30.4,10.2c16.2,0,29.5-4.5,30.4-10.2
					h0.1v-15.9C306.5,134.9,292.9,139.7,276.1,139.7L276.1,139.7z M276.1,139.7"/>
				<path class="st28" d="M245.6,128.3v0.6C245.6,128.7,245.6,128.5,245.6,128.3L245.6,128.3z M245.6,128.3"/>
				<path class="st28" d="M306.5,128.3c0,0.2,0.1,0.4,0.1,0.6L306.5,128.3L306.5,128.3z M306.5,128.3"/>
				<path class="st36" d="M276.1,124.5c-16.8,0-30.5-4.8-30.5-10.8v15.9h0.1c0.9,5.7,14.2,10.2,30.4,10.2c16.2,0,29.5-4.5,30.4-10.2
					h0.1v-15.9C306.5,119.6,292.9,124.5,276.1,124.5L276.1,124.5z M276.1,124.5"/>
				<path class="st36" d="M245.6,113v0.6C245.6,113.5,245.6,113.2,245.6,113L245.6,113z M245.6,113"/>
				<path class="st36" d="M306.5,113c0,0.2,0.1,0.4,0.1,0.6L306.5,113L306.5,113z M306.5,113"/>
				<path class="st5" d="M306.5,98.4c0,6-13.6,10.8-30.5,10.8c-16.8,0-30.5-4.8-30.5-10.8c0-6,13.6-10.8,30.5-10.8
					C292.9,87.6,306.5,92.5,306.5,98.4L306.5,98.4z M306.5,98.4"/>
				<path class="st4" d="M276.1,109.2c-16.8,0-30.5-4.8-30.5-10.8v15.9h0.1c0.9,5.7,14.2,10.2,30.4,10.2c16.2,0,29.5-4.5,30.4-10.2
					h0.1V98.4C306.5,104.4,292.9,109.2,276.1,109.2L276.1,109.2z M276.1,109.2"/>
				<path class="st30" d="M245.6,97.8v0.6C245.6,98.2,245.6,98,245.6,97.8L245.6,97.8z M245.6,97.8"/>
				<path class="st30" d="M306.5,97.8c0,0.2,0.1,0.4,0.1,0.6L306.5,97.8L306.5,97.8z M306.5,97.8"/>
			</g>
			<g>
				<g>
					<defs>
						<rect id="SVGID_7_" x="479.4" y="386.4" width="97.6" height="95.2"/>
					</defs>
					<clipPath id="SVGID_8_">
						<use xlink:href="#SVGID_7_"  style="overflow:visible;"/>
					</clipPath>
					<path class="st37" d="M509.7,454.5l-12.9,7c-0.8,0.4-1.4,0.9-2.1,1.5c7.5,6.3,17.2,10.1,27.8,10.1c10.5,0,20.1-3.8,27.6-10
						c-0.7-0.6-1.4-1.1-2.3-1.5l-13.8-6.9c-1.8-0.9-2.9-2.7-2.9-4.7v-5.4c0.4-0.4,0.8-1,1.3-1.7c1.9-2.7,3.3-5.6,4.3-8.6
						c1.8-0.5,3.1-2.2,3.1-4.1v-5.8c0-1.3-0.6-2.4-1.4-3.2v-8.3c0,0,1.7-13-15.9-13c-17.6,0-15.9,13-15.9,13v8.3
						c-0.9,0.8-1.4,1.9-1.4,3.2v5.8c0,1.5,0.8,2.9,2,3.6c1.4,6.3,5.2,10.8,5.2,10.8v5.3C512.5,451.8,511.4,453.6,509.7,454.5
						L509.7,454.5z M509.7,454.5"/>
					<path class="st38" d="M523.3,386.9c-23.8-0.4-43.4,18.6-43.9,42.4c-0.2,13.5,5.8,25.6,15.4,33.7c0.6-0.5,1.3-1,2-1.5l12.9-7
						c1.7-0.9,2.7-2.7,2.7-4.6v-5.3c0,0-3.8-4.5-5.2-10.8c-1.2-0.8-2-2.1-2-3.6v-5.8c0-1.3,0.6-2.4,1.4-3.2v-8.3c0,0-1.7-13,15.9-13
						c17.6,0,15.9,13,15.9,13v8.3c0.9,0.8,1.4,1.9,1.4,3.2v5.8c0,1.9-1.3,3.6-3.1,4.1c-1,3.1-2.4,6-4.3,8.6
						c-0.5,0.7-0.9,1.2-1.3,1.7v5.4c0,2,1.1,3.8,2.9,4.7l13.8,6.9c0.8,0.4,1.6,0.9,2.3,1.5c9.3-7.7,15.3-19.3,15.5-32.4
						C566.1,406.9,547.1,387.3,523.3,386.9L523.3,386.9z M523.3,386.9"/>
				</g>
				<path class="st33" d="M555.9,452.3c1.6-3.6,5.1-6.8,9.2-6.8c5.6,0,9.7,4.6,10.2,10.1c0,0,0.3,1.4-0.3,3.8
					c-0.8,3.3-2.8,6.3-5.4,8.5l-13.7,11.8l-13.7-11.8c-2.6-2.3-4.6-5.2-5.4-8.5c-0.6-2.4-0.3-3.8-0.3-3.8
					c0.5-5.5,4.6-10.1,10.2-10.1C550.9,445.5,554.3,448.8,555.9,452.3L555.9,452.3z M555.9,452.3"/>
			</g>
			<g>
				<g>
					<defs>
						<rect id="SVGID_9_" x="771" y="192.3" width="93.8" height="95.7"/>
					</defs>
					<clipPath id="SVGID_10_">
						<use xlink:href="#SVGID_9_"  style="overflow:visible;"/>
					</clipPath>
					<path class="st39" d="M845.3,286.2h-71.8c-1.7,0-2.9-1.6-2.4-3.2l16.3-44.7c0.3-1.1,1.3-1.8,2.4-1.8h71.8
						c1.7,0,2.4,1.6,2.4,3.2l-16.3,44.7C847.5,285.4,846.5,286.2,845.3,286.2L845.3,286.2z M845.3,286.2"/>
				</g>
				<path class="st40" d="M787.4,238.3c0.3-1.1,1.3-1.8,2.4-1.8h55v-19.2l-24.1-24.1h-36.9v54.9L787.4,238.3z M787.4,238.3"/>
				<path class="st41" d="M851.7,222h-6.8v14.4h9.6v-11.7C854.4,223.3,853.2,222,851.7,222L851.7,222z M851.7,222"/>
				<path class="st41" d="M783.9,210.8h-10c-1.5,0-2.8,1.2-2.8,2.8v68.5c0.1,0,0.2,0,0.3,0l12.5-34.1V210.8z M783.9,210.8"/>
				<path class="st42" d="M811.1,218.8h-16c-0.9,0-1.6-0.7-1.6-1.6c0-0.9,0.7-1.6,1.6-1.6h16c0.9,0,1.6,0.7,1.6,1.6
					C812.7,218.1,812,218.8,811.1,218.8L811.1,218.8z M811.1,218.8"/>
				<path class="st42" d="M811.1,207.6h-16c-0.9,0-1.6-0.7-1.6-1.6c0-0.9,0.7-1.6,1.6-1.6h16c0.9,0,1.6,0.7,1.6,1.6
					C812.7,206.9,812,207.6,811.1,207.6L811.1,207.6z M811.1,207.6"/>
				<path class="st42" d="M833.6,230h-38.5c-0.9,0-1.6-0.7-1.6-1.6c0-0.9,0.7-1.6,1.6-1.6h38.5c0.9,0,1.6,0.7,1.6,1.6
					C835.2,229.3,834.5,230,833.6,230L833.6,230z M833.6,230"/>
				<path class="st43" d="M820.8,217.2h24.1l-24.1-24.1V217.2z M820.8,217.2"/>
			</g>
			<rect x="997.4" y="104.3" class="st44" width="115" height="116.3"/>
			<rect x="1124" y="397" class="st45" width="83.5" height="17"/>
			<g>
				<rect x="986.7" y="95" class="st46" width="115.7" height="115.7"/>
				<path class="st41" d="M1011.5,110.7l3.2,6.4c0.2,0.3,0.5,0.6,0.9,0.6l7.1,1c0.9,0.1,1.3,1.3,0.6,1.9l-5.1,5
					c-0.3,0.3-0.4,0.6-0.3,1l1.2,7.1c0.2,0.9-0.8,1.6-1.6,1.2l-6.4-3.4c-0.3-0.2-0.7-0.2-1.1,0l-6.4,3.4c-0.8,0.4-1.8-0.3-1.6-1.2
					l1.2-7.1c0.1-0.4-0.1-0.7-0.3-1l-5.1-5c-0.7-0.7-0.3-1.8,0.6-1.9l7.1-1c0.4-0.1,0.7-0.3,0.9-0.6l3.2-6.5
					C1009.9,109.9,1011.1,109.9,1011.5,110.7z M1010.5,108.7"/>
				<path class="st47" d="M1015.1,146.2l1.7,3.5c0.1,0.2,0.3,0.3,0.5,0.3l3.8,0.6c0.5,0.1,0.7,0.7,0.4,1.1l-2.8,2.7
					c-0.2,0.1-0.2,0.4-0.2,0.6l0.7,3.8c0.1,0.5-0.5,0.9-0.9,0.7l-3.4-1.8c-0.2-0.1-0.4-0.1-0.6,0l-3.4,1.8c-0.5,0.2-1-0.2-0.9-0.7
					l0.7-3.8c0-0.2,0-0.4-0.2-0.6l-2.8-2.7c-0.4-0.4-0.2-1,0.4-1.1l3.8-0.6c0.2,0,0.4-0.2,0.5-0.3l1.7-3.5
					C1014.2,145.7,1014.8,145.7,1015.1,146.2z M1014.5,145.1"/>
				<path class="st47" d="M1015.1,177.2l1.6,3.3c0.1,0.2,0.3,0.4,0.5,0.4l3.6,0.5c0.6,0.1,0.8,0.8,0.4,1.2l-2.6,2.6
					c-0.2,0.2-0.2,0.4-0.2,0.6l0.6,3.6c0.1,0.6-0.5,1-1,0.7l-3.2-1.7c-0.2-0.1-0.5-0.1-0.7,0l-3.3,1.7c-0.5,0.3-1.1-0.2-1-0.7
					l0.6-3.6c0-0.2,0-0.5-0.2-0.6l-2.6-2.6c-0.4-0.4-0.2-1.1,0.4-1.2l3.6-0.5c0.2,0,0.4-0.2,0.5-0.4l1.6-3.3
					C1014.1,176.6,1014.9,176.6,1015.1,177.2z M1014.5,175.9"/>
				<path class="st2" d="M1088,126.9h-54.3c-1.3,0-2.3-0.9-2.3-2c0-1.1,1-2,2.3-2h54.3c1.3,0,2.3,0.9,2.3,2
					C1090.3,126,1089.3,126.9,1088,126.9L1088,126.9z M1088,126.9"/>
				<path class="st48" d="M1078.5,156.9h-47c-1.1,0-2-0.9-2-2c0-1.1,0.9-2,2-2h47c1.1,0,2,0.9,2,2
					C1080.5,156,1079.6,156.9,1078.5,156.9L1078.5,156.9z M1078.5,156.9"/>
				<path class="st48" d="M1078.5,186.8h-47c-1.1,0-2-0.9-2-2c0-1.1,0.9-2,2-2h47c1.1,0,2,0.9,2,2
					C1080.5,185.9,1079.6,186.8,1078.5,186.8L1078.5,186.8z M1078.5,186.8"/>
			</g>
			<g>
				<g>
					<defs>
						<rect id="SVGID_11_" x="853" y="359.2" width="69.5" height="48.3"/>
					</defs>
					<clipPath id="SVGID_12_">
						<use xlink:href="#SVGID_11_"  style="overflow:visible;"/>
					</clipPath>
					<path class="st49" d="M882.4,360c-8.1,2-14.5,8.4-16.4,16.7c-7.3,1.2-13,7.6-13,15.2c0,8.5,6.9,15.4,15.4,15.4h19.3v-48
						C885.9,359.4,884.1,359.6,882.4,360L882.4,360z M882.4,360"/>
					<path class="st50" d="M920.2,383.9c-2.3-3.8-6.2-6.5-10.7-7.2c-2.3-10-11.3-17.3-21.8-17.3v48H907c8.5,0,15.4-6.9,15.4-15.4
						C922.5,389,921.7,386.3,920.2,383.9L920.2,383.9z M920.2,383.9"/>
				</g>
			</g>
			<rect x="1188.5" y="173" class="st51" width="17.5" height="7.8"/>
			<rect x="1126.9" y="175.3" class="st51" width="40.6" height="3.1"/>
			<path class="st33" d="M1192.2,340.7h-90c-2.5,0-4.6-2.1-4.6-4.6v-10.8c0-2.5,2.1-4.6,4.6-4.6h90c2.5,0,4.6,2.1,4.6,4.6v10.8
				C1196.8,338.6,1194.8,340.7,1192.2,340.7z"/>
			<circle class="st2" cx="1147.2" cy="226.5" r="25.1"/>
			<rect x="1105.5" y="266.5" class="st20" width="86" height="8"/>
			<rect x="1105.5" y="281.3" class="st20" width="86" height="8"/>
			<rect x="1124.7" y="294.4" class="st20" width="47.7" height="8"/>
		</g>
	</g>
</g>
</svg>
